<svg xmlns="http://www.w3.org/2000/svg" xmlns:xlink="http://www.w3.org/1999/xlink" viewBox="0,0,256,256" width="48px" height="48px" fill-rule="nonzero"><g fill-opacity="0" fill="#dddddd" fill-rule="nonzero" stroke="none" stroke-width="1" stroke-linecap="butt" stroke-linejoin="miter" stroke-miterlimit="10" stroke-dasharray="" stroke-dashoffset="0" font-family="none" font-weight="none" font-size="none" text-anchor="none" style="mix-blend-mode: normal"><path d="M0,256v-256h256v256z" id="bgRectangle"></path></g><g fill="#ffffff" fill-rule="nonzero" stroke="none" stroke-width="1" stroke-linecap="butt" stroke-linejoin="miter" stroke-miterlimit="10" stroke-dasharray="" stroke-dashoffset="0" font-family="none" font-weight="none" font-size="none" text-anchor="none" style="mix-blend-mode: normal"><g transform="scale(5.33333,5.33333)"><path d="M45.345,20.262l-3.825,-1.403c-0.364,-1.542 -0.939,-3.016 -1.697,-4.411l1.206,-2.603c0.075,-0.162 0.095,-0.337 0.08,-0.507h0.009v-1.868h-0.006c0.012,-0.275 -0.08,-0.55 -0.283,-0.753l-2.546,-2.546c-0.297,-0.297 -0.749,-0.377 -1.127,-0.2l-3.704,1.716c-1.652,-1.025 -3.433,-1.764 -5.31,-2.207l-1.403,-3.825c-0.145,-0.393 -0.519,-0.655 -0.939,-0.655h-3.6c-0.42,0 -0.794,0.262 -0.938,0.655l-1.404,3.825c-1.877,0.442 -3.658,1.182 -5.311,2.206l-3.704,-1.716c-0.378,-0.177 -0.83,-0.097 -1.127,0.2l-2.545,2.547c-0.203,0.203 -0.296,0.478 -0.283,0.753h-0.006v1.868h0.009c-0.015,0.17 0.004,0.344 0.08,0.507l1.206,2.603c-0.758,1.395 -1.333,2.868 -1.697,4.411l-3.825,1.403c-0.393,0.144 -0.655,0.518 -0.655,0.938v5.6c0,0.42 0.262,0.794 0.655,0.938l3.825,1.403c0.364,1.542 0.939,3.016 1.697,4.41l-1.206,2.604c-0.059,0.128 -0.079,0.262 -0.082,0.397h-0.01v2.084h0.011c0.015,0.238 0.104,0.469 0.281,0.646l2.546,2.546c0.297,0.297 0.748,0.376 1.128,0.2l3.702,-1.717c1.652,1.024 3.435,1.765 5.312,2.207l1.403,3.825c0.144,0.395 0.518,0.657 0.938,0.657h3.6c0.42,0 0.794,-0.262 0.938,-0.655l1.403,-3.825c1.877,-0.442 3.659,-1.183 5.312,-2.207l3.702,1.717c0.38,0.176 0.831,0.097 1.128,-0.2l2.546,-2.546c0.177,-0.177 0.266,-0.408 0.281,-0.646h0.011v-2.084h-0.009c-0.003,-0.135 -0.023,-0.27 -0.082,-0.397l-1.206,-2.604c0.758,-1.395 1.333,-2.868 1.697,-4.41l3.825,-1.403c0.392,-0.146 0.654,-0.52 0.654,-0.94v-5.6c0,-0.42 -0.262,-0.794 -0.655,-0.938zM24,28.611c-2.752,0 -5.043,-1.994 -5.517,-4.611c0.474,-2.618 2.765,-4.611 5.517,-4.611c2.752,0 5.043,1.994 5.517,4.611c-0.474,2.618 -2.765,4.611 -5.517,4.611z"></path><path d="M45,24.8v-3.6l-4.34,-1.591c-0.44,-2.175 -1.3,-4.197 -2.485,-5.984l1.947,-4.201l-2.546,-2.546l-4.201,1.947c-1.788,-1.185 -3.809,-2.044 -5.984,-2.485l-1.591,-4.34h-3.6l-1.591,4.34c-2.175,0.44 -4.197,1.3 -5.984,2.485l-4.201,-1.947l-2.546,2.546l1.947,4.201c-1.185,1.788 -2.044,3.809 -2.485,5.984l-4.34,1.591v3.6l4.34,1.591c0.44,2.175 1.3,4.197 2.485,5.984l-1.947,4.201l2.546,2.546l4.201,-1.947c1.788,1.185 3.809,2.044 5.984,2.485l1.591,4.34h3.6l1.591,-4.34c2.175,-0.44 4.197,-1.3 5.984,-2.485l4.201,1.947l2.546,-2.546l-1.947,-4.201c1.185,-1.788 2.044,-3.809 2.485,-5.984zM24,29.611c-3.651,0 -6.611,-2.96 -6.611,-6.611c0,-3.651 2.96,-6.611 6.611,-6.611c3.651,0 6.611,2.96 6.611,6.611c0,3.651 -2.96,6.611 -6.611,6.611z"></path><path d="M25.8,45h-3.6c-0.42,0 -0.794,-0.262 -0.938,-0.656l-1.403,-3.825c-1.876,-0.442 -3.658,-1.182 -5.312,-2.206l-3.702,1.716c-0.38,0.176 -0.831,0.097 -1.128,-0.2l-2.546,-2.546c-0.297,-0.296 -0.377,-0.747 -0.2,-1.127l1.716,-3.703c-1.025,-1.653 -1.764,-3.435 -2.207,-5.311l-3.825,-1.403c-0.393,-0.145 -0.655,-0.52 -0.655,-0.939v-3.6c0,-0.419 0.262,-0.794 0.655,-0.939l3.825,-1.403c0.442,-1.876 1.183,-3.659 2.206,-5.312l-1.715,-3.702c-0.177,-0.381 -0.097,-0.831 0.2,-1.127l2.546,-2.545c0.297,-0.297 0.748,-0.377 1.128,-0.2l3.703,1.716c1.652,-1.024 3.435,-1.764 5.311,-2.206l1.403,-3.825c0.144,-0.395 0.518,-0.657 0.938,-0.657h3.6c0.42,0 0.794,0.262 0.938,0.656l1.403,3.825c1.876,0.442 3.658,1.182 5.311,2.206l3.703,-1.716c0.38,-0.177 0.831,-0.097 1.128,0.2l2.546,2.545c0.297,0.296 0.377,0.747 0.2,1.127l-1.716,3.703c1.023,1.653 1.764,3.435 2.206,5.312l3.825,1.403c0.394,0.145 0.656,0.52 0.656,0.939v3.6c0,0.419 -0.262,0.794 -0.655,0.939l-3.825,1.403c-0.442,1.876 -1.182,3.659 -2.206,5.312l1.716,3.703c0.177,0.381 0.097,0.831 -0.2,1.127l-2.546,2.546c-0.297,0.297 -0.748,0.376 -1.128,0.2l-3.702,-1.716c-1.653,1.024 -3.436,1.764 -5.312,2.206l-1.403,3.825c-0.145,0.393 -0.519,0.655 -0.939,0.655zM22.898,43h2.203l1.352,-3.684c0.119,-0.326 0.399,-0.567 0.74,-0.636c2.008,-0.407 3.902,-1.193 5.63,-2.338c0.29,-0.192 0.657,-0.22 0.974,-0.074l3.566,1.653l1.558,-1.558l-1.652,-3.567c-0.146,-0.315 -0.118,-0.683 0.073,-0.973c1.145,-1.727 1.932,-3.622 2.338,-5.63c0.069,-0.341 0.31,-0.621 0.636,-0.741l3.684,-1.35v-2.203l-3.685,-1.351c-0.326,-0.12 -0.566,-0.4 -0.636,-0.741c-0.406,-2.008 -1.193,-3.903 -2.338,-5.63c-0.191,-0.29 -0.22,-0.658 -0.073,-0.973l1.652,-3.567l-1.558,-1.558l-3.567,1.653c-0.316,0.146 -0.684,0.118 -0.974,-0.074c-1.727,-1.145 -3.621,-1.932 -5.629,-2.338c-0.341,-0.069 -0.621,-0.31 -0.74,-0.636l-1.35,-3.684h-2.203l-1.352,3.684c-0.119,0.326 -0.399,0.567 -0.74,0.636c-2.008,0.407 -3.902,1.193 -5.629,2.338c-0.29,0.192 -0.655,0.22 -0.974,0.074l-3.567,-1.653l-1.558,1.558l1.652,3.567c0.146,0.315 0.118,0.683 -0.073,0.973c-1.145,1.727 -1.932,3.622 -2.338,5.63c-0.069,0.341 -0.31,0.621 -0.636,0.741l-3.684,1.35v2.203l3.685,1.351c0.326,0.12 0.566,0.4 0.636,0.741c0.406,2.008 1.193,3.903 2.338,5.63c0.191,0.29 0.22,0.658 0.073,0.973l-1.652,3.567l1.558,1.558l3.566,-1.653c0.316,-0.146 0.684,-0.119 0.974,0.074c1.728,1.145 3.622,1.932 5.63,2.338c0.341,0.069 0.621,0.31 0.74,0.636zM45,24.8h0.01zM24,30.611c-4.197,0 -7.611,-3.415 -7.611,-7.611c0,-4.196 3.414,-7.611 7.611,-7.611c4.197,0 7.611,3.415 7.611,7.611c0,4.196 -3.414,7.611 -7.611,7.611zM24,17.389c-3.094,0 -5.611,2.517 -5.611,5.611c0,3.094 2.518,5.611 5.611,5.611c3.093,0 5.611,-2.517 5.611,-5.611c0,-3.094 -2.517,-5.611 -5.611,-5.611z"></path></g></g></svg>